<?xml version="1.0" encoding="UTF-8"?>
<svg id="Layer_2" data-name="Layer 2" xmlns="http://www.w3.org/2000/svg" viewBox="0 0 1569.27 753.37">
  <defs>
    <style>
      .cls-1 {
        fill: none;
        stroke: #fff;
        stroke-miterlimit: 10;
      }
    </style>
  </defs>
  <g id="Layer_1-2" data-name="Layer 1">
    <g>
      <path class="cls-1" d="M1567.32.99c-37.53,9.09-78.61,19.28-120.4,29.51-58.11,47.07-113.98,94.47-159.24,136.38-45.64,42.21-80.66,78.91-105.92,111.64-156.07,53.34-242.64,77.27-321.3,99.96,1.35-20.62,20.24-82.72,36.82-115.47,23.72-1.85,48.3-4.27,74.21-7.31,24-38.08,57.99-84.02,106.95-141.24-14.99,44.45-27.44,82.55-35.35,116.39-26.06,33.23-44.28,61.23-56.78,86.52,26.12-8.43,54.8-17.92,87.07-28.96,37.64-54.92,107.41-127.32,212.86-219.61-73.18,16.76-142.61,31.37-206.8,42.69,0,0,0,.01-.01.02-103.33,18.23-193.03,28.07-281.07,28.95,16.58,47.2,26.68,84.72,35.3,116.82-36.67,129.17-28.8,168.24-59.9,355.59,31.07-.26,62.09.58,93.67,2.51-5.61-64.08-9.99-111.26-11.21-150.75,31.45-8.54,61.96-16.08,93.9-23.63,7.57,48.87,30.21,107.18,69.18,190.97,34.68,5.24,70.74,11.54,108.39,18.8-67.35-99.43-104.49-167.47-112.8-224.78,34.78-7.97,72.43-16.56,115.73-26.98-1.47,15.97,4.13,63.69,45.29,124.72,37.24,60,109.87,138.64,135.48,166.61,75.2,17.47,154.27,37.15,225.54,54.62-83.25-60.2-176.62-128.36-242.83-181.95-38.5-47.19-60.75-89.66-69.35-128.99-8.28-39.62-2.9-76.1,21.19-117.98,23.78-41.64,66.27-88.68,124.95-143.78,57.72-54.33,131.63-116.74,196.43-171.27Z"/>
      <path class="cls-1" d="M795.52,140.49c-31.08.26-62.08-.58-93.67-2.51,6.6,75.45,11.49,127.46,11.54,171.09-80.56,21.97-157.05,38.54-277.31,70.14,3.38-15.4,4.84-43.16-4.79-72.93-8.59-29.57-28.33-62.7-41.43-82.34,34.16,6.13,66.19,11.55,96.37,16.29-22.25-41.12-55.44-89.25-99-145.83,67,54.99,117.03,100.98,154.19,138.76,14.75,31.21,24.47,58.24,29.17,83.31,21.98-4.95,42.97-9.74,63.59-14.64-7.63-45.62-26.56-100.24-57.43-176.56-60.11-8.29-124.55-19.99-193.99-34.52,0,0,.02.01.02.02C272.68,67.84,144.98,36.08,32.36,8.39c83.22,60.17,176.56,128.3,242.77,181.88,38.52,47.2,60.79,89.68,69.39,129.02,8.29,39.63,2.92,76.11-21.17,118-23.78,41.65-66.27,88.68-124.94,143.79-57.73,54.34-131.65,116.75-196.46,171.3,37.53-9.09,78.61-19.28,120.4-29.51,99.92-80.91,188.09-158.6,239.69-217.33,64.23-23.3,117.51-41.58,163.13-56.68-33.42,55.75-100.03,129.17-210.13,228.45,40.72-9.1,80.17-17.47,118.03-24.87,100.78-106.25,149.66-174.84,172.65-229.53,37.38-11.69,69.65-21.33,99.84-30.19-2.66,11.61-9.86,46.02-31.63,93.23-19.81,45.63-59.03,112.66-76.69,139.44,60.71-7.72,117.4-11.9,173.67-12.48-16.58-47.23-26.67-84.75-35.29-116.87,36.65-129.13,28.79-168.21,59.89-355.54Z"/>
    </g>
  </g>
</svg>