<?xml version="1.0" encoding="UTF-8"?>
<svg id="Layer_2" data-name="Layer 2" xmlns="http://www.w3.org/2000/svg" xmlns:xlink="http://www.w3.org/1999/xlink" viewBox="0 0 735.62 412.13">
  <defs>
    <style>
      .cls-1 {
        fill: url(#White_Black);
      }

      .cls-1, .cls-2 {
        stroke: #fff;
        stroke-linejoin: round;
        stroke-width: 11.26px;
      }

      .cls-2 {
        fill: url(#White_Black-2);
      }
    </style>
    <linearGradient id="White_Black" data-name="White, Black" x1="414.68" y1="367.44" x2="414.68" y2="192.66" gradientUnits="userSpaceOnUse">
      <stop offset="0" stop-color="#fff"/>
      <stop offset="1" stop-color="#000"/>
    </linearGradient>
    <linearGradient id="White_Black-2" data-name="White, Black" x1="367.81" y1="367.44" x2="367.81" y2="192.66" xlink:href="#White_Black"/>
  </defs>
  <g id="Layer_1-2" data-name="Layer 1">
    <g>
      <polyline class="cls-1" points="365.77 42.44 388.84 73.96 374.62 127.04 458.01 127.04 490.55 5.63 407.15 5.63 338.82 5.63 365.77 42.44"/>
      <polygon class="cls-2" points="642.04 333.84 695.22 406.5 539.18 406.5 580.42 252.6 424.38 252.6 383.14 406.5 299.75 406.5 340.96 252.6 130.26 252.6 89.05 406.5 5.63 406.5 93.58 78.26 40.4 5.64 306.19 5.64 286.71 78.26 177 78.26 149.73 179.98 599.87 179.98 600.18 178.87 614.05 127.04 646.57 5.64 729.99 5.64 642.04 333.84"/>
    </g>
  </g>
</svg>