<?xml version="1.0" encoding="UTF-8"?>
<svg id="Layer_2" data-name="Layer 2" xmlns="http://www.w3.org/2000/svg" viewBox="0 0 573.96 573.96">
  <defs>
    <style>
      .cls-1 {
        font-family: GeistMono-Bold, 'Geist Mono';
        font-size: 88px;
        font-weight: 700;
      }
    </style>
  </defs>
  <g id="Layer_1-2" data-name="Layer 1">
    <text class="cls-1" transform="translate(500.35 285.61) rotate(96.67)"><tspan x="0" y="0">F</tspan></text>
    <text class="cls-1" transform="translate(491.26 348.87) rotate(113.99)"><tspan x="0" y="0">E</tspan></text>
    <text class="cls-1" transform="translate(463.72 406.56) rotate(131.21)"><tspan x="0" y="0">L</tspan></text>
    <text class="cls-1" transform="translate(420.34 453.56) rotate(148.37)"><tspan x="0" y="0">I</tspan></text>
    <text class="cls-1" transform="translate(365.04 485.65) rotate(165.69)"><tspan x="0" y="0">X</tspan></text>
    <text class="cls-1" transform="translate(302.7 499.77) rotate(-177.17)"><tspan x="0" y="0">H</tspan></text>
    <text class="cls-1" transform="translate(238.91 494.95) rotate(-159.88)"><tspan x="0" y="0">A</tspan></text>
    <text class="cls-1" transform="translate(179.51 471.37) rotate(-142.62)"><tspan x="0" y="0">F</tspan></text>
    <text class="cls-1" transform="translate(129.72 431.22) rotate(-125.47)"><tspan x="0" y="0">E</tspan></text>
    <text class="cls-1" transform="translate(93.99 378.2) rotate(-108.19)"><tspan x="0" y="0">L</tspan></text>
    <text class="cls-1" transform="translate(75.69 316.96) rotate(-90.95)"><tspan x="0" y="0">I</tspan></text>
    <text class="cls-1" transform="translate(76.26 252.98) rotate(-73.76)"><tspan x="0" y="0">X</tspan></text>
    <text class="cls-1" transform="translate(95.78 192.11) rotate(-56.45)"><tspan x="0" y="0">H</tspan></text>
    <text class="cls-1" transform="translate(132.49 139.77) rotate(-39.31)"><tspan x="0" y="0">A</tspan></text>
    <text class="cls-1" transform="translate(183.02 100.56) rotate(-22.06)"><tspan x="0" y="0">F</tspan></text>
    <text class="cls-1" transform="translate(242.86 78.15) rotate(-4.76)"><tspan x="0" y="0">E</tspan></text>
    <text class="cls-1" transform="translate(306.76 74.49) rotate(12.37)"><tspan x="0" y="0">L</tspan></text>
    <text class="cls-1" transform="translate(368.78 89.83) rotate(29.69)"><tspan x="0" y="0">I</tspan></text>
    <text class="cls-1" transform="translate(423.49 122.97) rotate(46.87)"><tspan x="0" y="0">X</tspan></text>
    <text class="cls-1" transform="translate(465.97 170.75) rotate(64.07)"><tspan x="0" y="0">H</tspan></text>
    <text class="cls-1" transform="translate(492.39 228.96) rotate(81.4)"><tspan x="0" y="0">A</tspan></text>
  </g>
</svg>