<svg xmlns="http://www.w3.org/2000/svg" viewBox="0 0 664.08 83.02"><defs><style>.cls-1{fill:#fff;}</style></defs><g id="Layer_2" data-name="Layer 2"><g id="Layer_1-2" data-name="Layer 1"><path class="cls-1" d="M0,83V0H70.26V16.73H18.59V35.44H68.4V52H18.59V83Z"/><path class="cls-1" d="M78.19,83V0h131.6V16.73h-113V33h113V49.57h-113V66.3h113V83Z"/><path class="cls-1" d="M218.22,83V0h18.59V66.3h49.44V83Z"/><path class="cls-1" d="M293.69,83V0h18.58V83Z"/><path class="cls-1" d="M316.49,83l32.34-41V40.64L316.49,0h24.29l23.29,29.62h1.36L387.86,0h24.29L379.93,41v1.36L412.15,83H387.86L364.69,53h-1.36L340.78,83Z"/><path class="cls-1" d="M435.2,69.15v-20H415.5V33.83h19.7V13.88h16V33.83h19.7V49.19h-19.7v20Z"/><path class="cls-1" d="M479.82,83V0H498.4V33h43.37V0h18.59V83H541.77V49.69H498.4V83Z"/><path class="cls-1" d="M564.7,83,601,0h26.52l36.55,83H642.77L635,64.68H593.45L585.52,83ZM600.64,48h27.14L620,29.86,614.89,17h-1.37l-5.08,12.88Z"/></g></g></svg>