<?xml version="1.0" encoding="utf-8"?>
<!-- Generator: Adobe Illustrator 27.2.0, SVG Export Plug-In . SVG Version: 6.00 Build 0)  -->
<svg version="1.1" id="Layer_1" xmlns="http://www.w3.org/2000/svg" xmlns:xlink="http://www.w3.org/1999/xlink" x="0px" y="0px"
	 viewBox="0 0 664.1 83" style="enable-background:new 0 0 664.1 83;" xml:space="preserve">
<style type="text/css">
	.st0{fill:#FFFFFF;}
</style>
<g id="Layer_2_00000107567069954130280780000005617480740317220744_">
	<g id="Layer_1-2">
		<path class="st0" d="M0,83V0h70.3v16.7H18.6v18.7h49.8V52H18.6v31H0z"/>
		<path class="st0" d="M78.2,83V0h131.6v16.7h-113V33h113v16.6h-113v16.7h113V83H78.2z"/>
		<path class="st0" d="M218.2,83V0h18.6v66.3h49.4V83H218.2z"/>
		<path class="st0" d="M293.7,83V0h18.6v83H293.7z"/>
		<path class="st0" d="M316.5,83l32.3-41v-1.4L316.5,0h24.3l23.3,29.6h1.4L387.9,0h24.3l-32.2,41v1.4L412.1,83h-24.3l-23.2-30h-1.4
			l-22.6,30H316.5z"/>
		<path class="st0" d="M479.8,83V0h18.6v33h43.4V0h18.6v83h-18.6V49.7h-43.4V83H479.8z"/>
		<path class="st0" d="M564.7,83L601,0h26.5l36.5,83h-21.3L635,64.7h-41.5L585.5,83H564.7z M600.6,48h27.1L620,29.9L614.9,17h-1.4
			l-5.1,12.9L600.6,48z"/>
	</g>
</g>
</svg>
